<svg width="12" height="15" viewBox="0 0 12 15" fill="none" xmlns="http://www.w3.org/2000/svg">
<path d="M6.00031 0.0812988C4.75401 0.0812988 3.55875 0.576391 2.67748 1.45766C1.79621 2.33893 1.30112 3.53419 1.30112 4.7805V7.14889C1.30121 7.25303 1.27708 7.35577 1.23063 7.44897L0.0779817 9.75359C0.0216762 9.86618 -0.00491075 9.9913 0.000746023 10.1171C0.0064028 10.2428 0.0441154 10.365 0.110302 10.4721C0.176489 10.5792 0.268952 10.6676 0.37891 10.7289C0.488867 10.7902 0.612669 10.8223 0.738555 10.8223H11.2621C11.388 10.8223 11.5118 10.7902 11.6217 10.7289C11.7317 10.6676 11.8241 10.5792 11.8903 10.4721C11.9565 10.365 11.9942 10.2428 11.9999 10.1171C12.0055 9.9913 11.979 9.86618 11.9226 9.75359L10.7707 7.44897C10.724 7.35582 10.6996 7.25309 10.6995 7.14889V4.7805C10.6995 3.53419 10.2044 2.33893 9.32315 1.45766C8.44188 0.576391 7.24662 0.0812988 6.00031 0.0812988ZM6.00031 12.8363C5.58366 12.8365 5.1772 12.7075 4.83694 12.467C4.49668 12.2265 4.23938 11.8865 4.1005 11.4936H7.90013C7.76125 11.8865 7.50395 12.2265 7.16369 12.467C6.82343 12.7075 6.41697 12.8365 6.00031 12.8363Z" fill="#949494"/>
</svg>
