<svg width="20" height="21" viewBox="0 0 20 21" fill="none" xmlns="http://www.w3.org/2000/svg">
<path d="M8.345 20.7256C7.895 20.7256 7.50767 20.5756 7.183 20.2756C6.85833 19.9756 6.66233 19.6089 6.595 19.1756L6.37 17.5256C6.15333 17.4423 5.94933 17.3423 5.758 17.2256C5.56667 17.1089 5.379 16.9839 5.195 16.8506L3.645 17.5006C3.22833 17.6839 2.81167 17.7006 2.395 17.5506C1.97833 17.4006 1.65333 17.1339 1.42 16.7506L0.245 14.7006C0.0116665 14.3173 -0.055 13.9089 0.045 13.4756C0.145 13.0423 0.37 12.6839 0.72 12.4006L2.045 11.4006C2.02833 11.2839 2.02 11.1713 2.02 11.0626V10.3876C2.02 10.2796 2.02833 10.1673 2.045 10.0506L0.72 9.05059C0.37 8.76725 0.145 8.40892 0.045 7.97559C-0.055 7.54225 0.0116665 7.13392 0.245 6.75059L1.42 4.70059C1.65333 4.31725 1.97833 4.05059 2.395 3.90059C2.81167 3.75059 3.22833 3.76725 3.645 3.95059L5.195 4.60059C5.37833 4.46725 5.57 4.34225 5.77 4.22559C5.97 4.10892 6.17 4.00892 6.37 3.92559L6.595 2.27559C6.66167 1.84225 6.85767 1.47559 7.183 1.17559C7.50833 0.875586 7.89567 0.725586 8.345 0.725586H10.695C11.145 0.725586 11.5327 0.875586 11.858 1.17559C12.1833 1.47559 12.379 1.84225 12.445 2.27559L12.67 3.92559C12.8867 4.00892 13.091 4.10892 13.283 4.22559C13.475 4.34225 13.6623 4.46725 13.845 4.60059L15.395 3.95059C15.8117 3.76725 16.2283 3.75059 16.645 3.90059C17.0617 4.05059 17.3867 4.31725 17.62 4.70059L18.795 6.75059C19.0283 7.13392 19.095 7.54225 18.995 7.97559C18.895 8.40892 18.67 8.76725 18.32 9.05059L16.995 10.0506C17.0117 10.1673 17.02 10.2799 17.02 10.3886V11.0626C17.02 11.1713 17.0033 11.2839 16.97 11.4006L18.295 12.4006C18.645 12.6839 18.87 13.0423 18.97 13.4756C19.07 13.9089 19.0033 14.3173 18.77 14.7006L17.57 16.7506C17.3367 17.1339 17.0117 17.4006 16.595 17.5506C16.1783 17.7006 15.7617 17.6839 15.345 17.5006L13.845 16.8506C13.6617 16.9839 13.47 17.1089 13.27 17.2256C13.07 17.3423 12.87 17.4423 12.67 17.5256L12.445 19.1756C12.3783 19.6089 12.1827 19.9756 11.858 20.2756C11.5333 20.5756 11.1457 20.7256 10.695 20.7256H8.345ZM9.57 14.2256C10.5367 14.2256 11.3617 13.8839 12.045 13.2006C12.7283 12.5173 13.07 11.6923 13.07 10.7256C13.07 9.75892 12.7283 8.93392 12.045 8.25059C11.3617 7.56725 10.5367 7.22559 9.57 7.22559C8.58667 7.22559 7.75733 7.56725 7.082 8.25059C6.40667 8.93392 6.06933 9.75892 6.07 10.7256C6.07067 11.6923 6.40833 12.5173 7.083 13.2006C7.75767 13.8839 8.58667 14.2256 9.57 14.2256Z" fill="#949494"/>
</svg>
