<svg width="22" height="17" viewBox="0 0 22 17" fill="none" xmlns="http://www.w3.org/2000/svg">
<path d="M10 16.9419H5.5C3.98 16.9419 2.68333 16.4186 1.61 15.3719C0.536667 14.3186 0 13.0352 0 11.5219C0 10.2219 0.39 9.0619 1.17 8.04189C1.95667 7.02189 2.98333 6.37189 4.25 6.09189C4.67 4.55856 5.50333 3.31856 6.75 2.37189C8.00333 1.41856 9.42 0.941895 11 0.941895C12.9533 0.941895 14.6067 1.62189 15.96 2.98189C17.32 4.33523 18 5.98856 18 7.94189C19.1533 8.07523 20.1067 8.57523 20.86 9.44189C21.62 10.2952 22 11.2952 22 12.4419C22 13.6952 21.5633 14.7586 20.69 15.6319C19.8167 16.5052 18.7533 16.9419 17.5 16.9419H12V9.79189L13.6 11.3419L15 9.94189L11 5.94189L7 9.94189L8.4 11.3419L10 9.79189V16.9419Z" fill="#949494"/>
</svg>
