<svg width="22" height="16" viewBox="0 0 22 16" fill="none" xmlns="http://www.w3.org/2000/svg">
<path d="M14.744 0L1.79473 3.32245L7.78723 6.04636L20.7259 2.64136L14.7439 0H14.744ZM14.67 0.889875L18.179 2.43952L14.7782 3.33436L11.1567 1.79142L14.67 0.889875ZM21.3644 3.34589L7.8568 6.90047L7.7135 6.9382H7.71341L7.71148 6.93867L7.57756 6.87773L0.819264 3.87422L0.810639 3.86991C0.548842 3.73898 0.435076 3.77653 0.305795 3.87506C0.176561 3.9735 0.0472795 4.19756 0.0116545 4.48237C-0.0595487 5.05205 0.181155 5.77519 1.13272 6.09234L1.15203 6.09886L7.78526 9.04688L15.9057 6.90994V5.48203L19.4682 4.62211V5.97239L21.445 5.45222C21.2406 4.79423 21.1952 4.086 21.3644 3.34594V3.34589ZM18.6244 5.69367L16.7494 6.1463V10.9831L17.7782 9.95433L18.6244 10.5402V5.69367ZM21.3644 6.34589L19.4682 6.84492V8.97234L21.445 8.45213C21.2406 7.79419 21.1952 7.08595 21.3644 6.34589ZM0.523483 6.786C0.438967 6.78769 0.374561 6.82266 0.305889 6.87497C0.176608 6.97345 0.0473264 7.19747 0.0117014 7.48233C-0.0595017 8.052 0.181201 8.77509 1.13276 9.0923L1.15208 9.09877L7.78526 12.0469L15.9057 9.90994V7.78242L7.7135 9.9382L0.840686 6.88378C0.764462 6.85765 0.689365 6.82835 0.615592 6.79594C0.585393 6.78898 0.554472 6.78564 0.523483 6.786ZM0.840686 6.88378L0.841717 6.88416L0.828639 6.8783L0.840686 6.88378ZM21.3644 9.34589L19.4682 9.84492V11.9723L21.445 11.4522C21.2406 10.7942 21.1952 10.086 21.3644 9.34589ZM0.523483 9.786C0.438967 9.78769 0.374561 9.82266 0.305889 9.87497C0.176608 9.97345 0.0473264 10.1975 0.0117014 10.4823C-0.0595017 11.052 0.181201 11.7751 1.13276 12.0923L1.15208 12.0988L7.78526 15.0469L15.9057 12.9099V10.7824L7.7135 12.9382L0.840686 9.88378C0.764462 9.85765 0.689365 9.82835 0.615592 9.79594C0.585393 9.78898 0.554472 9.78564 0.523483 9.786ZM0.840686 9.88378L0.841717 9.88416L0.828639 9.8783L0.840686 9.88378ZM17.8768 11.0489L16.0551 12.8706L19.2817 12.0214L17.8769 11.0489H17.8768Z" fill="#949494"/>
</svg>
